STARTFONT 2.1
FONT -FontForge-DejaVu Sans Mono-Bold-R-Normal-SansMono--52-500-75-75-P-309-ISO10646-1
SIZE 50 75 75
FONTBOUNDINGBOX 61 75 -23 -20
COMMENT "Generated by fontforge, http://fontforge.sourceforge.net"
COMMENT "Copyright (c) 2003 by Bitstream, Inc. All Rights Reserved."
COMMENT "DejaVu changes are in public domain"
STARTPROPERTIES 40
FOUNDRY "FontForge"
FAMILY_NAME "DejaVu Sans Mono"
WEIGHT_NAME "Bold"
SLANT "R"
SETWIDTH_NAME "Normal"
ADD_STYLE_NAME "SansMono"
PIXEL_SIZE 52
POINT_SIZE 500
RESOLUTION_X 75
RESOLUTION_Y 75
SPACING "P"
AVERAGE_WIDTH 309
CHARSET_REGISTRY "ISO10646"
CHARSET_ENCODING "1"
FONTNAME_REGISTRY ""
CHARSET_COLLECTIONS "ASCII ISOLatin1Encoding ISO8859-2 ISO8859-5 ISO8859-7 ISO8859-9 ISO8859-6 ISO8859-4 ISO10646-1"
FONT_NAME "DejaVuSansMono-Bold"
FACE_NAME "DejaVu Sans Mono Bold"
COPYRIGHT "Copyright (c) 2003 by Bitstream, Inc. All Rights Reserved."
FONT_VERSION "2.37"
FONT_ASCENT 40
FONT_DESCENT 12
UNDERLINE_POSITION -4
UNDERLINE_THICKNESS 3
X_HEIGHT 27
CAP_HEIGHT 37
RAW_ASCENT 759
RAW_DESCENT 240
NORM_SPACE 31
RELATIVE_WEIGHT 70
RELATIVE_SETWIDTH 50
SUPERSCRIPT_X 0
SUPERSCRIPT_Y 24
SUPERSCRIPT_SIZE 36
SUBSCRIPT_X 0
SUBSCRIPT_Y 7
SUBSCRIPT_SIZE 36
FIGURE_WIDTH 31
AVG_LOWERCASE_WIDTH 310
AVG_UPPERCASE_WIDTH 310
ENDPROPERTIES
CHARS 3316
STARTCHAR space
ENCODING 32
SWIDTH 602 0
DWIDTH 31 0
BBX 1 1 0 0
BITMAP
00
ENDCHAR
STARTCHAR exclam
ENCODING 33
SWIDTH 602 0
DWIDTH 31 0
BBX 7 38 12 0
BITMAP
FE
FE
FE
FE
FE
FE
FE
FE
FE
FE
FE
FE
FE
FE
FE
FE
FE
FE
FE
FE
FE
FE
7C
7C
7C
7C
00
00
00
00
00
FE
FE
FE
FE
FE
FE
FE
ENDCHAR
STARTCHAR quotedbl
ENCODING 34
SWIDTH 602 0
DWIDTH 31 0
BBX 21 14 5 24
BITMAP
FE03F8
FE03F8
FE03F8
FE03F8
FE03F8
FE03F8
FE03F8
FE03F8
FE03F8
FE03F8
FE03F8
FE03F8
FE03F8
FE03F8
ENDCHAR
STARTCHAR numbersign
ENCODING 35
SWIDTH 602 0
DWIDTH 31 0
BBX 31 37 0 0
BITMAP
000FC1F0
000F81F0
000F83F0
001F83F0
001F83E0
001F03E0
001F07E0
003F07E0
003F07E0
003F07C0
1FFFFFFE
1FFFFFFE
1FFFFFFE
1FFFFFFE
1FFFFFFE
00FC1F80
00FC1F00
00F81F00
00F83F00
01F83F00
01F83F00
01F83E00
01F07E00
FFFFFFF0
FFFFFFF0
FFFFFFF0
FFFFFFF0
FFFFFFF0
07E0F800
07C0F800
07C1F800
0FC1F800
0FC1F000
0F81F000
1F83F000
1F83F000
1F83E000
ENDCHAR
STARTCHAR dollar
ENCODING 36
SWIDTH 602 0
DWIDTH 31 0
BBX 24 47 4 -8
BITMAP
003C00
003C00
003C00
003C00
003C00
003C00
01FFE0
0FFFFC
1FFFFC
3FFFFC
7FFFFC
7FFFFC
FF3C3C
FE3C04
FE3C00
FE3C00
FE3C00
FF3C00
FFFC00
7FFE00
7FFFC0
3FFFF0
1FFFF8
07FFFC
00FFFE
003FFE
003CFF
003C7F
003C7F
003C7F
803C7F
E03CFF
FC3DFF
FFFFFE
FFFFFE
FFFFFC
FFFFF8
7FFFE0
07FF80
003C00
003C00
003C00
003C00
003C00
003C00
003C00
003C00
ENDCHAR
STARTCHAR percent
ENCODING 37
SWIDTH 602 0
DWIDTH 31 0
BBX 30 36 1 0
BITMAP
07E00000
1FF80000
3FFC0000
7FFE0000
7E7E0000
FC3F0000
F81F0000
F81F0000
F81F0000
F81F0000
FC3F0000
7E7E0000
7FFE0030
3FFC01F0
1FF807E0
07E03F80
0001FC00
0007E000
003F8000
01FC0000
07E01F80
3F807FE0
3C00FFF0
2001FFF8
0001F9F8
0003F0FC
0003E07C
0003E07C
0003E07C
0003E07C
0003F0FC
0001F9F8
0001FFF8
0000FFF0
00007FE0
00001F80
ENDCHAR
STARTCHAR ampersand
ENCODING 38
SWIDTH 602 0
DWIDTH 31 0
BBX 31 40 1 -1
BITMAP
001FF800
007FFE00
01FFFE00
01FFFE00
03FFFE00
07FFFE00
07FFFE00
07F80600
07F00000
07F00000
07F00000
07F80000
03F80000
03FC0000
01FE0000
01FE0000
03FF0000
07FF8000
0FFF8000
1FFFC000
3FDFE0FC
3F9FE0FC
7F0FF0FC
7F07F8FC
FE07F8FC
FE03FCFC
FE01FEF8
FE01FFF8
FE00FFF8
FF007FF0
FF803FF0
FFC03FE0
7FE07FE0
7FFFFFE0
3FFFFFF0
1FFFFFF8
1FFFFFF8
07FFFBFC
03FFE1FE
007F8000
ENDCHAR
STARTCHAR quotesingle
ENCODING 39
SWIDTH 602 0
DWIDTH 31 0
BBX 7 14 12 24
BITMAP
FE
FE
FE
FE
FE
FE
FE
FE
FE
FE
FE
FE
FE
FE
ENDCHAR
STARTCHAR parenleft
ENCODING 40
SWIDTH 602 0
DWIDTH 31 0
BBX 14 46 10 -6
BITMAP
01FC
01F8
03F8
03F0
07F0
0FE0
0FE0
1FC0
1FC0
1F80
3F80
3F80
3F00
7F00
7F00
7F00
7F00
FE00
FE00
FE00
FE00
FE00
FE00
FE00
FE00
FE00
FE00
FE00
FE00
7F00
7F00
7F00
7F00
3F00
3F80
3F80
1F80
1FC0
0FC0
0FE0
07E0
07F0
03F0
03F8
01F8
00FC
ENDCHAR
STARTCHAR parenright
ENCODING 41
SWIDTH 602 0
DWIDTH 31 0
BBX 14 46 7 -6
BITMAP
FC00
7E00
7F00
3F00
3F80
1F80
1FC0
0FC0
0FE0
07E0
07F0
07F0
07F0
03F8
03F8
03F8
03F8
01FC
01FC
01FC
01FC
01FC
01FC
01FC
01FC
01FC
01FC
01FC
01FC
03F8
03F8
03F8
03F8
07F0
07F0
07F0
0FE0
0FE0
0FC0
1FC0
1F80
3F80
3F00
7F00
7E00
FC00
ENDCHAR
STARTCHAR asterisk
ENCODING 42
SWIDTH 602 0
DWIDTH 31 0
BBX 24 24 3 15
BITMAP
003C00
003C00
003C00
003C00
203C04
783C1E
7C3C3E
FF3CFF
3FFFFC
0FFFF8
07FFE0
01FF80
01FF80
07FFE0
0FFFF8
3FFFFC
FF3CFF
7C3C3E
783C0E
203C04
003C00
003C00
003C00
003C00
ENDCHAR
STARTCHAR plus
ENCODING 43
SWIDTH 602 0
DWIDTH 31 0
BBX 28 28 2 2
BITMAP
001F8000
001F8000
001F8000
001F8000
001F8000
001F8000
001F8000
001F8000
001F8000
001F8000
001F8000
FFFFFFF0
FFFFFFF0
FFFFFFF0
FFFFFFF0
FFFFFFF0
FFFFFFF0
001F8000
001F8000
001F8000
001F8000
001F8000
001F8000
001F8000
001F8000
001F8000
001F8000
001F8000
ENDCHAR
STARTCHAR comma
ENCODING 44
SWIDTH 602 0
DWIDTH 31 0
BBX 11 17 9 -8
BITMAP
1FE0
1FE0
1FE0
1FE0
1FE0
1FE0
1FE0
1FE0
1FC0
3FC0
3F80
3F00
7F00
7E00
7E00
FC00
F800
ENDCHAR
STARTCHAR hyphen
ENCODING 45
SWIDTH 602 0
DWIDTH 31 0
BBX 16 7 8 11
BITMAP
FFFF
FFFF
FFFF
FFFF
FFFF
FFFF
FFFF
ENDCHAR
STARTCHAR period
ENCODING 46
SWIDTH 602 0
DWIDTH 31 0
BBX 8 9 11 0
BITMAP
FF
FF
FF
FF
FF
FF
FF
FF
FF
ENDCHAR
STARTCHAR slash
ENCODING 47
SWIDTH 602 0
DWIDTH 31 0
BBX 26 43 3 -5
BITMAP
00000FC0
00001F80
00001F80
00003F00
00003F00
00007E00
00007E00
0000FE00
0000FC00
0000FC00
0001F800
0001F800
0003F000
0003F000
0007E000
0007E000
000FC000
000FC000
001F8000
001F8000
003F0000
003F0000
003F0000
007E0000
007E0000
00FC0000
00FC0000
01F80000
01F80000
03F00000
03F00000
07E00000
07E00000
0FC00000
0FC00000
1FC00000
1F800000
1F800000
3F000000
3F000000
7E000000
7E000000
FC000000
ENDCHAR
STARTCHAR zero
ENCODING 48
SWIDTH 602 0
DWIDTH 31 0
BBX 25 40 3 -1
BITMAP
007F0000
01FFC000
07FFF000
0FFFF800
1FFFFC00
1FFFFC00
3FC3FE00
3F80FE00
7F80FE00
7F007F00
7F007F00
7F007F00
7E007F00
FE003F80
FE003F80
FE003F80
FE003F80
FE3C3F80
FE7E3F80
FE7E3F80
FE7E3F80
FE7E3F80
FE3C3F80
FE003F80
FE003F80
FE003F80
FE003F80
7E007F00
7F007F00
7F007F00
7F007F00
7F80FF00
3F80FE00
3FE3FE00
1FFFFC00
1FFFFC00
0FFFF800
07FFF000
01FFC000
007F0000
ENDCHAR
STARTCHAR one
ENCODING 49
SWIDTH 602 0
DWIDTH 31 0
BBX 23 38 5 0
BITMAP
03FE00
3FFE00
FFFE00
FFFE00
FFFE00
FFFE00
FCFE00
C0FE00
00FE00
00FE00
00FE00
00FE00
00FE00
00FE00
00FE00
00FE00
00FE00
00FE00
00FE00
00FE00
00FE00
00FE00
00FE00
00FE00
00FE00
00FE00
00FE00
00FE00
00FE00
00FE00
00FE00
00FE00
FFFFFE
FFFFFE
FFFFFE
FFFFFE
FFFFFE
FFFFFE
ENDCHAR
STARTCHAR two
ENCODING 50
SWIDTH 602 0
DWIDTH 31 0
BBX 24 39 3 0
BITMAP
03FF00
3FFFE0
7FFFF0
7FFFF8
7FFFFC
7FFFFE
7E03FE
7001FF
4000FF
00007F
00007F
00007F
00007F
00007F
0000FE
0000FE
0001FE
0003FC
0003FC
0007F8
000FF0
001FE0
003FC0
007F80
00FF80
01FF00
03FE00
07FC00
0FF800
1FF000
1FE000
3FC000
7F8000
FFFFFF
FFFFFF
FFFFFF
FFFFFF
FFFFFF
FFFFFF
ENDCHAR
STARTCHAR three
ENCODING 51
SWIDTH 602 0
DWIDTH 31 0
BBX 25 40 3 -1
BITMAP
03FF0000
3FFFE000
7FFFF000
7FFFFC00
7FFFFC00
7FFFFE00
7FFFFE00
7C03FF00
6000FF00
00007F00
00007F00
00007F00
00007F00
0000FE00
0003FE00
01FFFC00
01FFF800
01FFE000
01FFC000
01FFF000
01FFFC00
01FFFE00
0003FE00
0000FF00
00007F00
00003F80
00003F80
00003F80
00003F80
00003F80
00007F80
8000FF80
F803FF00
FFFFFF00
FFFFFF00
FFFFFE00
FFFFFC00
FFFFF800
7FFFE000
07FF0000
ENDCHAR
STARTCHAR four
ENCODING 52
SWIDTH 602 0
DWIDTH 31 0
BBX 26 38 3 0
BITMAP
0003FC00
0007FC00
0007FC00
000FFC00
001FFC00
001FFC00
003FFC00
007FFC00
007FFC00
00FDFC00
01FDFC00
01F9FC00
03F1FC00
07F1FC00
07E1FC00
0FC1FC00
0FC1FC00
1F81FC00
3F01FC00
3F01FC00
7E01FC00
FC01FC00
FC01FC00
FFFFFFC0
FFFFFFC0
FFFFFFC0
FFFFFFC0
FFFFFFC0
FFFFFFC0
0001FC00
0001FC00
0001FC00
0001FC00
0001FC00
0001FC00
0001FC00
0001FC00
0001FC00
ENDCHAR
STARTCHAR five
ENCODING 53
SWIDTH 602 0
DWIDTH 31 0
BBX 24 39 4 -1
BITMAP
7FFFFC
7FFFFC
7FFFFC
7FFFFC
7FFFFC
7FFFFC
7E0000
7E0000
7E0000
7E0000
7E0000
7E0000
7E0000
7FFE00
7FFFC0
7FFFE0
7FFFF0
7FFFF8
7FFFFC
780FFE
4003FE
0001FE
0000FF
00007F
00007F
00007F
00007F
00007F
00007F
0000FF
8000FE
E001FE
F807FE
FFFFFC
FFFFF8
FFFFF0
FFFFE0
7FFF80
07FE00
ENDCHAR
STARTCHAR six
ENCODING 54
SWIDTH 602 0
DWIDTH 31 0
BBX 25 40 3 -1
BITMAP
001FE000
00FFFC00
03FFFE00
07FFFE00
0FFFFE00
1FFFFE00
1FF03E00
3FE00600
3FC00200
7F800000
7F000000
7F000000
7F000000
FE000000
FE1FC000
FE7FF000
FEFFF800
FFFFFC00
FFFFFE00
FFFFFF00
FFE1FF00
FFC0FF00
FF807F80
FF003F80
FF003F80
FF003F80
FF003F80
FF003F80
7F003F80
7F003F80
7F003F80
7F807F00
3FC0FF00
3FE1FF00
1FFFFE00
1FFFFE00
0FFFFC00
07FFF800
01FFE000
007F8000
ENDCHAR
STARTCHAR seven
ENCODING 55
SWIDTH 602 0
DWIDTH 31 0
BBX 24 38 3 0
BITMAP
FFFFFF
FFFFFF
FFFFFF
FFFFFF
FFFFFF
FFFFFF
0001FF
0001FE
0001FE
0003FC
0003FC
0007FC
0007F8
0007F8
000FF0
000FF0
001FF0
001FE0
001FE0
003FC0
003FC0
003F80
007F80
007F80
00FF00
00FF00
00FE00
01FE00
01FE00
03FC00
03FC00
03F800
07F800
07F800
0FF000
0FF000
0FE000
1FE000
ENDCHAR
STARTCHAR eight
ENCODING 56
SWIDTH 602 0
DWIDTH 31 0
BBX 25 40 3 -1
BITMAP
00FF8000
03FFE000
0FFFF800
1FFFFC00
1FFFFC00
3FFFFE00
3FC1FE00
7F80FF00
7F807F00
7F007F00
7F007F00
7F007F00
7F007F00
7F807F00
3F80FE00
3FC1FE00
1FFFFC00
0FFFF800
03FFE000
07FFF000
0FFFF800
1FFFFC00
3FC1FE00
7F80FF00
7F007F00
FE003F80
FE003F80
FE003F80
FE003F80
FE003F80
FE003F80
FF007F80
7F80FF00
7FC1FF00
7FFFFF00
3FFFFE00
1FFFFC00
0FFFF800
07FFF000
00FF8000
ENDCHAR
STARTCHAR nine
ENCODING 57
SWIDTH 602 0
DWIDTH 31 0
BBX 25 40 3 -1
BITMAP
00FF0000
03FFC000
0FFFF000
1FFFF800
3FFFFC00
3FFFFC00
7FC3FE00
7F81FE00
7F00FF00
FE007F00
FE007F00
FE007F00
FE007F00
FE007F80
FE007F80
FE007F80
FE007F80
FF00FF80
7F81FF80
7FC3FF80
7FFFFF80
3FFFFF80
1FFFFF80
1FFFBF80
07FF3F80
01FC3F80
00003F00
00007F00
00007F00
00007F00
0000FF00
2001FE00
3003FE00
3E07FC00
3FFFF800
3FFFF800
3FFFF000
3FFFE000
1FFF8000
03FC0000
ENDCHAR
STARTCHAR colon
ENCODING 58
SWIDTH 602 0
DWIDTH 31 0
BBX 8 27 11 0
BITMAP
FF
FF
FF
FF
FF
FF
FF
FF
FF
00
00
00
00
00
00
00
00
00
FF
FF
FF
FF
FF
FF
FF
FF
FF
ENDCHAR
STARTCHAR semicolon
ENCODING 59
SWIDTH 602 0
DWIDTH 31 0
BBX 10 35 9 -8
BITMAP
3FC0
3FC0
3FC0
3FC0
3FC0
3FC0
3FC0
3FC0
3FC0
0000
0000
0000
0000
0000
0000
0000
0000
0000
3FC0
3FC0
3FC0
3FC0
3FC0
3FC0
3FC0
3FC0
3F80
7F80
7F00
7F00
7E00
7E00
FC00
FC00
F800
ENDCHAR
STARTCHAR less
ENCODING 60
SWIDTH 602 0
DWIDTH 31 0
BBX 26 27 2 3
BITMAP
00000040
000003C0
00000FC0
00007FC0
0001FFC0
000FFFC0
003FFFC0
01FFFE00
07FFF000
1FFF8000
FFFE0000
FFF00000
FF800000
FE000000
FF800000
FFF00000
FFFE0000
3FFF8000
07FFF000
01FFFE00
003FFFC0
000FFFC0
0001FFC0
00007FC0
00000FC0
000003C0
00000040
ENDCHAR
STARTCHAR equal
ENCODING 61
SWIDTH 602 0
DWIDTH 31 0
BBX 26 18 2 8
BITMAP
FFFFFFC0
FFFFFFC0
FFFFFFC0
FFFFFFC0
FFFFFFC0
FFFFFFC0
00000000
00000000
00000000
00000000
00000000
00000000
FFFFFFC0
FFFFFFC0
FFFFFFC0
FFFFFFC0
FFFFFFC0
FFFFFFC0
ENDCHAR
STARTCHAR greater
ENCODING 62
SWIDTH 602 0
DWIDTH 31 0
BBX 26 27 2 3
BITMAP
80000000
F0000000
FC000000
FF800000
FFE00000
FFFC0000
FFFF0000
1FFFE000
03FFF800
007FFE00
001FFFC0
0003FFC0
00007FC0
00001FC0
00007FC0
0003FFC0
001FFFC0
007FFF00
03FFF800
1FFFE000
7FFF0000
FFFC0000
FFE00000
FF800000
FC000000
F0000000
80000000
ENDCHAR
STARTCHAR question
ENCODING 63
SWIDTH 602 0
DWIDTH 31 0
BBX 21 39 6 0
BITMAP
03FC00
1FFF80
7FFFC0
FFFFE0
FFFFF0
FFFFF0
FC0FF8
F007F8
C003F8
8003F8
0003F8
0003F8
0007F0
000FF0
001FE0
003FC0
007F80
00FF80
01FF00
03FE00
03FC00
07F800
07F000
07F000
07F000
07F000
07F000
07F000
07F000
000000
000000
000000
07F000
07F000
07F000
07F000
07F000
07F000
07F000
ENDCHAR
STARTCHAR at
ENCODING 64
SWIDTH 602 0
DWIDTH 31 0
BBX 29 44 0 -9
BITMAP
0007F800
003FFE00
00FFFF80
01FFFFC0
03FFFFE0
07FC0FE0
0FE003F0
0FC001F0
1F8001F0
3F0000F8
3F0000F8
3E00FCF8
7E03FEF8
7C07FFF8
7C0FFFF8
7C1FFFF8
F81F83F8
F81F01F8
F83F01F8
F83E00F8
F83E00F8
F83E00F8
F83E00F8
F83E00F8
F83E00F8
F83F01F8
F81F01F8
FC1F83F8
7C1FFFF8
7C0FFFF8
7E07FFF8
7E03FEF8
3E00F800
3F000000
1F800000
1FC00000
0FE00000
07F80060
03FE01E0
01FFFFF0
00FFFFF0
007FFFF0
001FFFC0
0001FF00
ENDCHAR
STARTCHAR A
ENCODING 65
SWIDTH 602 0
DWIDTH 31 0
BBX 30 38 1 0
BITMAP
003FF000
003FF000
003FF000
007FF800
007FF800
007FF800
007FF800
00FFFC00
00FFFC00
00FCFC00
01FCFE00
01FCFE00
01FCFE00
01F87E00
03F87F00
03F87F00
03F87F00
03F03F00
07F03F80
07F03F80
07F03F80
0FF03FC0
0FFFFFC0
0FFFFFC0
0FFFFFC0
1FFFFFE0
1FFFFFE0
1FFFFFE0
1FC00FE0
3FC00FF0
3F8007F0
3F8007F0
7F8007F8
7F8007F8
7F0003F8
7F0003F8
FF0003FC
FF0003FC
ENDCHAR
STARTCHAR B
ENCODING 66
SWIDTH 602 0
DWIDTH 31 0
BBX 27 38 3 0
BITMAP
FFFFC000
FFFFF800
FFFFFE00
FFFFFF00
FFFFFF80
FFFFFF80
FE00FFC0
FE003FC0
FE001FC0
FE001FC0
FE001FC0
FE001FC0
FE001FC0
FE003F80
FE00FF80
FFFFFF00
FFFFFE00
FFFFF800
FFFFFC00
FFFFFF00
FFFFFF80
FE007FC0
FE001FC0
FE001FC0
FE000FE0
FE000FE0
FE000FE0
FE000FE0
FE000FE0
FE001FE0
FE001FE0
FE007FC0
FFFFFFC0
FFFFFFC0
FFFFFF80
FFFFFF00
FFFFFC00
FFFFE000
ENDCHAR
STARTCHAR C
ENCODING 67
SWIDTH 602 0
DWIDTH 31 0
BBX 24 40 4 -1
BITMAP
000FF0
007FFE
01FFFF
03FFFF
07FFFF
0FFFFF
1FFFFF
1FF81F
3FE003
3FC001
7F8000
7F8000
7F0000
7F0000
FF0000
FE0000
FE0000
FE0000
FE0000
FE0000
FE0000
FE0000
FE0000
FE0000
FE0000
FF0000
7F0000
7F0000
7F8000
7F8000
3FC001
3FE003
1FF81F
1FFFFF
0FFFFF
07FFFF
03FFFF
01FFFF
007FFE
000FF0
ENDCHAR
STARTCHAR D
ENCODING 68
SWIDTH 602 0
DWIDTH 31 0
BBX 27 38 3 0
BITMAP
FFFC0000
FFFFC000
FFFFF000
FFFFF800
FFFFFE00
FFFFFE00
FFFFFF00
FE03FF80
FE00FF80
FE007FC0
FE003FC0
FE001FC0
FE001FC0
FE001FE0
FE000FE0
FE000FE0
FE000FE0
FE000FE0
FE000FE0
FE000FE0
FE000FE0
FE000FE0
FE000FE0
FE000FE0
FE001FE0
FE001FC0
FE001FC0
FE003FC0
FE007FC0
FE00FF80
FE03FF80
FFFFFF00
FFFFFE00
FFFFFE00
FFFFF800
FFFFF000
FFFFC000
FFFC0000
ENDCHAR
STARTCHAR E
ENCODING 69
SWIDTH 602 0
DWIDTH 31 0
BBX 24 38 4 0
BITMAP
FFFFFF
FFFFFF
FFFFFF
FFFFFF
FFFFFF
FFFFFF
FFFFFF
FE0000
FE0000
FE0000
FE0000
FE0000
FE0000
FE0000
FE0000
FFFFFC
FFFFFC
FFFFFC
FFFFFC
FFFFFC
FFFFFC
FFFFFC
FE0000
FE0000
FE0000
FE0000
FE0000
FE0000
FE0000
FE0000
FE0000
FFFFFF
FFFFFF
FFFFFF
FFFFFF
FFFFFF
FFFFFF
FFFFFF
ENDCHAR
STARTCHAR F
ENCODING 70
SWIDTH 602 0
DWIDTH 31 0
BBX 24 38 5 0
BITMAP
FFFFFF
FFFFFF
FFFFFF
FFFFFF
FFFFFF
FFFFFF
FFFFFF
FE0000
FE0000
FE0000
FE0000
FE0000
FE0000
FE0000
FE0000
FFFFFE
FFFFFE
FFFFFE
FFFFFE
FFFFFE
FFFFFE
FFFFFE
FE0000
FE0000
FE0000
FE0000
FE0000
FE0000
FE0000
FE0000
FE0000
FE0000
FE0000
FE0000
FE0000
FE0000
FE0000
FE0000
ENDCHAR
STARTCHAR G
ENCODING 71
SWIDTH 602 0
DWIDTH 31 0
BBX 27 40 3 -1
BITMAP
000FF800
007FFE00
01FFFF80
03FFFFC0
07FFFFC0
0FFFFFC0
1FFFFFC0
1FF80FC0
3FE001C0
3FC000C0
7F800040
7F800000
7F000000
7F000000
FF000000
FE000000
FE000000
FE000000
FE000000
FE00FFE0
FE00FFE0
FE00FFE0
FE00FFE0
FE00FFE0
FE00FFE0
FF00FFE0
7F0007E0
7F0007E0
7F8007E0
7F8007E0
3FC007E0
3FE007E0
1FF80FE0
1FFFFFE0
0FFFFFE0
07FFFFE0
03FFFFC0
01FFFF80
007FFE00
000FF000
ENDCHAR
STARTCHAR H
ENCODING 72
SWIDTH 602 0
DWIDTH 31 0
BBX 24 38 3 0
BITMAP
FE007F
FE007F
FE007F
FE007F
FE007F
FE007F
FE007F
FE007F
FE007F
FE007F
FE007F
FE007F
FE007F
FE007F
FE007F
FFFFFF
FFFFFF
FFFFFF
FFFFFF
FFFFFF
FFFFFF
FFFFFF
FE007F
FE007F
FE007F
FE007F
FE007F
FE007F
FE007F
FE007F
FE007F
FE007F
FE007F
FE007F
FE007F
FE007F
FE007F
FE007F
ENDCHAR
STARTCHAR I
ENCODING 73
SWIDTH 602 0
DWIDTH 31 0
BBX 23 38 4 0
BITMAP
FFFFFE
FFFFFE
FFFFFE
FFFFFE
FFFFFE
FFFFFE
FFFFFE
00FE00
00FE00
00FE00
00FE00
00FE00
00FE00
00FE00
00FE00
00FE00
00FE00
00FE00
00FE00
00FE00
00FE00
00FE00
00FE00
00FE00
00FE00
00FE00
00FE00
00FE00
00FE00
00FE00
00FE00
FFFFFE
FFFFFE
FFFFFE
FFFFFE
FFFFFE
FFFFFE
FFFFFE
ENDCHAR
STARTCHAR J
ENCODING 74
SWIDTH 602 0
DWIDTH 31 0
BBX 23 39 3 -1
BITMAP
01FFFE
01FFFE
01FFFE
01FFFE
01FFFE
01FFFE
01FFFE
0000FE
0000FE
0000FE
0000FE
0000FE
0000FE
0000FE
0000FE
0000FE
0000FE
0000FE
0000FE
0000FE
0000FE
0000FE
0000FE
0000FE
0000FE
0000FE
0000FE
0000FE
C000FE
E001FE
F003FE
FE07FC
FFFFFC
FFFFFC
FFFFF8
FFFFF0
7FFFE0
1FFFC0
03FE00
ENDCHAR
STARTCHAR K
ENCODING 75
SWIDTH 602 0
DWIDTH 31 0
BBX 27 38 3 0
BITMAP
FE003FE0
FE003FC0
FE007F80
FE00FF00
FE01FF00
FE03FE00
FE03FC00
FE07F800
FE0FF000
FE1FF000
FE1FE000
FE3FC000
FE7F8000
FEFF0000
FFFF0000
FFFF0000
FFFF0000
FFFF8000
FFFF8000
FFFFC000
FFFFC000
FFDFE000
FF9FE000
FF0FF000
FE0FF000
FE07F800
FE07F800
FE03FC00
FE03FE00
FE01FE00
FE01FF00
FE00FF00
FE00FF80
FE007F80
FE007FC0
FE003FC0
FE001FE0
FE001FE0
ENDCHAR
STARTCHAR L
ENCODING 76
SWIDTH 602 0
DWIDTH 31 0
BBX 24 38 6 0
BITMAP
FE0000
FE0000
FE0000
FE0000
FE0000
FE0000
FE0000
FE0000
FE0000
FE0000
FE0000
FE0000
FE0000
FE0000
FE0000
FE0000
FE0000
FE0000
FE0000
FE0000
FE0000
FE0000
FE0000
FE0000
FE0000
FE0000
FE0000
FE0000
FE0000
FE0000
FE0000
FFFFFF
FFFFFF
FFFFFF
FFFFFF
FFFFFF
FFFFFF
FFFFFF
ENDCHAR
STARTCHAR M
ENCODING 77
SWIDTH 602 0
DWIDTH 31 0
BBX 27 38 2 0
BITMAP
FF803FE0
FF803FE0
FF803FE0
FFC07FE0
FFC07FE0
FFC07FE0
FFE0FFE0
FFE0FFE0
FFE0FFE0
FDE0F7E0
FDF1F7E0
FDF1F7E0
FDF1F7E0
FCFBE7E0
FCFBE7E0
FCFBE7E0
FCFFE7E0
FC7FC7E0
FC7FC7E0
FC7FC7E0
FC7FC7E0
FC3F87E0
FC3F87E0
FC3F87E0
FC0007E0
FC0007E0
FC0007E0
FC0007E0
FC0007E0
FC0007E0
FC0007E0
FC0007E0
FC0007E0
FC0007E0
FC0007E0
FC0007E0
FC0007E0
FC0007E0
ENDCHAR
STARTCHAR N
ENCODING 78
SWIDTH 602 0
DWIDTH 31 0
BBX 25 38 3 0
BITMAP
FF803F80
FF803F80
FF803F80
FFC03F80
FFC03F80
FFC03F80
FFE03F80
FFE03F80
FFE03F80
FFF03F80
FFF03F80
FFF03F80
FEF83F80
FEF83F80
FEF83F80
FE7C3F80
FE7C3F80
FE7C3F80
FE3E3F80
FE3E3F80
FE1F3F80
FE1F3F80
FE1F3F80
FE0FBF80
FE0FBF80
FE0FBF80
FE07FF80
FE07FF80
FE07FF80
FE03FF80
FE03FF80
FE03FF80
FE01FF80
FE01FF80
FE01FF80
FE00FF80
FE00FF80
FE007F80
ENDCHAR
STARTCHAR O
ENCODING 79
SWIDTH 602 0
DWIDTH 31 0
BBX 27 40 2 -1
BITMAP
003F8000
01FFF000
03FFF800
07FFFC00
0FFFFE00
1FFFFF00
1FFFFF00
3FE0FF80
3FC07F80
7F803FC0
7F001FC0
7F001FC0
7F001FC0
FE001FE0
FE000FE0
FE000FE0
FE000FE0
FE000FE0
FE000FE0
FE000FE0
FE000FE0
FE000FE0
FE000FE0
FE000FE0
FE000FE0
FE000FE0
FE001FE0
7F001FC0
7F001FC0
7F001FC0
7F803FC0
3FC07F80
3FE0FF80
1FFFFF00
1FFFFF00
0FFFFE00
07FFFC00
03FFF800
01FFF000
003F8000
ENDCHAR
STARTCHAR P
ENCODING 80
SWIDTH 602 0
DWIDTH 31 0
BBX 25 38 4 0
BITMAP
FFFF0000
FFFFE000
FFFFF800
FFFFFC00
FFFFFE00
FFFFFF00
FFFFFF00
FE01FF00
FE007F80
FE007F80
FE003F80
FE003F80
FE003F80
FE003F80
FE007F80
FE007F80
FE01FF00
FFFFFF00
FFFFFF00
FFFFFE00
FFFFFC00
FFFFF800
FFFFE000
FFFF0000
FE000000
FE000000
FE000000
FE000000
FE000000
FE000000
FE000000
FE000000
FE000000
FE000000
FE000000
FE000000
FE000000
FE000000
ENDCHAR
STARTCHAR Q
ENCODING 81
SWIDTH 602 0
DWIDTH 31 0
BBX 27 46 2 -7
BITMAP
003F8000
01FFF000
03FFF800
07FFFC00
0FFFFE00
1FFFFF00
1FFFFF00
3FE0FF80
3FC07F80
7F803FC0
7F001FC0
7F001FC0
7F001FC0
FE001FE0
FE000FE0
FE000FE0
FE000FE0
FE000FE0
FE000FE0
FE000FE0
FE000FE0
FE000FE0
FE000FE0
FE000FE0
FE000FE0
FE000FE0
FE001FE0
7F001FC0
7F001FC0
7F001FC0
7F803FC0
3FC07FC0
3FE0FF80
1FFFFF80
1FFFFF00
0FFFFF00
07FFFE00
03FFFC00
01FFFC00
003FFE00
0001FF00
0000FF80
00007FC0
00003F00
00001E00
00000400
ENDCHAR
STARTCHAR R
ENCODING 82
SWIDTH 602 0
DWIDTH 31 0
BBX 28 38 3 0
BITMAP
FFFF8000
FFFFF000
FFFFFC00
FFFFFE00
FFFFFE00
FFFFFF00
FFFFFF00
FE01FF80
FE007F80
FE003F80
FE003F80
FE003F80
FE003F80
FE003F80
FE007F80
FE01FF00
FFFFFF00
FFFFFE00
FFFFFC00
FFFFE000
FFFFF000
FFFFF800
FFFFF800
FE0FFC00
FE07FC00
FE03FC00
FE01FE00
FE00FE00
FE00FF00
FE007F00
FE007F80
FE003F80
FE003FC0
FE003FC0
FE001FC0
FE001FE0
FE000FE0
FE000FF0
ENDCHAR
STARTCHAR S
ENCODING 83
SWIDTH 602 0
DWIDTH 31 0
BBX 25 40 3 -1
BITMAP
00FFC000
07FFFC00
0FFFFE00
1FFFFE00
3FFFFE00
7FFFFE00
7FFFFE00
FF803E00
FF000200
FE000000
FE000000
FE000000
FF000000
FF800000
FFF00000
7FFE0000
7FFFC000
3FFFE000
1FFFF800
07FFFC00
01FFFE00
007FFE00
000FFF00
0003FF00
0000FF80
00007F80
00003F80
00003F80
00003F80
80003F80
E0007F80
F8007F80
FF01FF00
FFFFFF00
FFFFFF00
FFFFFE00
FFFFFC00
7FFFF800
1FFFE000
03FF0000
ENDCHAR
STARTCHAR T
ENCODING 84
SWIDTH 602 0
DWIDTH 31 0
BBX 27 38 2 0
BITMAP
FFFFFFE0
FFFFFFE0
FFFFFFE0
FFFFFFE0
FFFFFFE0
FFFFFFE0
FFFFFFE0
003F8000
003F8000
003F8000
003F8000
003F8000
003F8000
003F8000
003F8000
003F8000
003F8000
003F8000
003F8000
003F8000
003F8000
003F8000
003F8000
003F8000
003F8000
003F8000
003F8000
003F8000
003F8000
003F8000
003F8000
003F8000
003F8000
003F8000
003F8000
003F8000
003F8000
003F8000
ENDCHAR
STARTCHAR U
ENCODING 85
SWIDTH 602 0
DWIDTH 31 0
BBX 26 39 3 -1
BITMAP
FE001FC0
FE001FC0
FE001FC0
FE001FC0
FE001FC0
FE001FC0
FE001FC0
FE001FC0
FE001FC0
FE001FC0
FE001FC0
FE001FC0
FE001FC0
FE001FC0
FE001FC0
FE001FC0
FE001FC0
FE001FC0
FE001FC0
FE001FC0
FE001FC0
FE001FC0
FE001FC0
FE001FC0
FE001FC0
FE001FC0
FE001FC0
FE001FC0
FE001FC0
FF003FC0
7F807F80
7FC0FF80
7FFFFF80
3FFFFF00
3FFFFF00
1FFFFE00
0FFFFC00
03FFF000
00FFC000
ENDCHAR
STARTCHAR V
ENCODING 86
SWIDTH 602 0
DWIDTH 31 0
BBX 28 38 1 0
BITMAP
FF000FF0
FF000FF0
7F000FE0
7F000FE0
7F000FE0
7F801FE0
3F801FE0
3F801FC0
3F801FC0
3F801FC0
3FC03FC0
1FC03F80
1FC03F80
1FC03F80
1FC03F80
0FE07F00
0FE07F00
0FE07F00
0FE07F00
07E07E00
07F0FE00
07F0FE00
07F0FE00
03F0FE00
03F1FC00
03F9FC00
03F9FC00
03F9FC00
01F9F800
01FFF800
01FFF800
01FFF800
00FFF000
00FFF000
00FFF000
00FFF000
007FE000
007FE000
ENDCHAR
STARTCHAR W
ENCODING 87
SWIDTH 602 0
DWIDTH 31 0
BBX 31 38 0 0
BITMAP
FE0000FE
FE0000FE
FE0000FE
FE0000FE
7E0000FC
7E0000FC
7E0000FC
7E0000FC
7E0000FC
7E0000FC
7E0FE0FC
7F0FE0FC
3F0FE1FC
3F0FE1F8
3F0FF1F8
3F1FF1F8
3F1FF1F8
3F1FF1F8
3F1EF1F8
3F1EF9F8
3F1EF9F8
1FBEF9F8
1FBEF9F0
1FBC79F0
1FBC7DF0
1FBC7DF0
1FFC7FF0
1FFC7FF0
1FF83FF0
0FF83FF0
0FF83FF0
0FF83FE0
0FF81FE0
0FF01FE0
0FF01FE0
0FF01FE0
0FF01FE0
07F00FE0
ENDCHAR
STARTCHAR X
ENCODING 88
SWIDTH 602 0
DWIDTH 31 0
BBX 30 38 1 0
BITMAP
FF0003FC
7F8007F8
7F8007F8
3FC00FF0
1FE01FE0
1FE01FE0
0FF03FC0
0FF03FC0
07F87F80
03F8FF00
03FCFF00
01FFFE00
01FFFE00
00FFFC00
007FF800
007FF800
003FF000
003FF000
001FE000
001FE000
003FF000
007FF800
007FF800
00FFFC00
00FFFC00
01FFFE00
01FCFE00
03FCFF00
07F87F80
07F87F80
0FF03FC0
0FE01FC0
1FE01FE0
1FC00FE0
3FC00FF0
7F8007F8
7F8003F8
FF0003FC
ENDCHAR
STARTCHAR Y
ENCODING 89
SWIDTH 602 0
DWIDTH 31 0
BBX 31 38 0 0
BITMAP
FF8003FE
7F8003FC
7F8003FC
3FC007F8
3FC007F8
1FE00FF0
1FE00FF0
0FF01FE0
0FF01FE0
07F83FC0
07F83FC0
03FC7F80
01FC7F00
01FEFF00
00FEFE00
00FFFE00
007FFC00
007FFC00
003FF800
003FF800
001FF000
001FF000
000FE000
000FE000
000FE000
000FE000
000FE000
000FE000
000FE000
000FE000
000FE000
000FE000
000FE000
000FE000
000FE000
000FE000
000FE000
000FE000
ENDCHAR
STARTCHAR Z
ENCODING 90
SWIDTH 602 0
DWIDTH 31 0
BBX 27 38 3 0
BITMAP
7FFFFFE0
7FFFFFE0
7FFFFFE0
7FFFFFE0
7FFFFFE0
7FFFFFE0
7FFFFFE0
00007FC0
00007F80
0000FF80
0001FF00
0003FE00
0003FC00
0007FC00
000FF800
000FF000
001FF000
003FE000
007FC000
007F8000
00FF8000
01FF0000
01FE0000
03FE0000
07FC0000
07F80000
0FF00000
1FF00000
3FE00000
3FC00000
7FC00000
FFFFFFE0
FFFFFFE0
FFFFFFE0
FFFFFFE0
FFFFFFE0
FFFFFFE0
FFFFFFE0
ENDCHAR
STARTCHAR bracketleft
ENCODING 91
SWIDTH 602 0
DWIDTH 31 0
BBX 13 46 11 -6
BITMAP
FFF8
FFF8
FFF8
FFF8
FFF8
FE00
FE00
FE00
FE00
FE00
FE00
FE00
FE00
FE00
FE00
FE00
FE00
FE00
FE00
FE00
FE00
FE00
FE00
FE00
FE00
FE00
FE00
FE00
FE00
FE00
FE00
FE00
FE00
FE00
FE00
FE00
FE00
FE00
FE00
FE00
FE00
FFF8
FFF8
FFF8
FFF8
FFF8
ENDCHAR
STARTCHAR bracketright
ENCODING 93
SWIDTH 602 0
DWIDTH 31 0
BBX 13 46 8 -6
BITMAP
FFF8
FFF8
FFF8
FFF8
FFF8
03F8
03F8
03F8
03F8
03F8
03F8
03F8
03F8
03F8
03F8
03F8
03F8
03F8
03F8
03F8
03F8
03F8
03F8
03F8
03F8
03F8
03F8
03F8
03F8
03F8
03F8
03F8
03F8
03F8
03F8
03F8
03F8
03F8
03F8
03F8
03F8
FFF8
FFF8
FFF8
FFF8
FFF8
ENDCHAR
STARTCHAR underscore
ENCODING 95
SWIDTH 602 0
DWIDTH 31 0
BBX 31 5 0 -12
BITMAP
FFFFFFFE
FFFFFFFE
FFFFFFFE
FFFFFFFE
FFFFFFFE
ENDCHAR
STARTCHAR a
ENCODING 97
SWIDTH 602 0
DWIDTH 31 0
BBX 26 30 2 -1
BITMAP
00FFC000
0FFFF800
1FFFFE00
1FFFFF00
1FFFFF00
1F80FF80
1C003F80
10001FC0
00001FC0
00001FC0
00FFFFC0
07FFFFC0
1FFFFFC0
3FFFFFC0
7FFFFFC0
7FE01FC0
FF001FC0
FF001FC0
FE001FC0
FE001FC0
FE003FC0
FE003FC0
FE007FC0
FF00FFC0
7FC1FFC0
7FFFFFC0
3FFFFFC0
1FFFDFC0
0FFF1FC0
01FC0000
ENDCHAR
STARTCHAR b
ENCODING 98
SWIDTH 602 0
DWIDTH 31 0
BBX 25 41 4 -1
BITMAP
FE000000
FE000000
FE000000
FE000000
FE000000
FE000000
FE000000
FE000000
FE000000
FE000000
FE000000
FE0FC000
FE3FF000
FE7FF800
FEFFFC00
FFFFFE00
FFFFFE00
FFC1FF00
FF80FF00
FF007F00
FF007F00
FF007F80
FE003F80
FE003F80
FE003F80
FE003F80
FE003F80
FE003F80
FE003F80
FE003F80
FF007F80
FF007F80
FF007F00
FF80FF00
FFC1FF00
FFFFFE00
FFFFFE00
FEFFFC00
FE7FF800
FE3FF000
000FC000
ENDCHAR
STARTCHAR c
ENCODING 99
SWIDTH 602 0
DWIDTH 31 0
BBX 23 30 4 -1
BITMAP
003FE0
01FFFC
07FFFE
0FFFFE
1FFFFE
1FFFFE
3FF03E
7FC006
7F8002
7F0000
FF0000
FE0000
FE0000
FE0000
FE0000
FE0000
FE0000
FE0000
FE0000
FF0000
7F0000
7F8002
7FC006
3FF03E
3FFFFE
1FFFFE
0FFFFE
07FFFE
01FFFC
003FE0
ENDCHAR
STARTCHAR d
ENCODING 100
SWIDTH 602 0
DWIDTH 31 0
BBX 25 41 2 -1
BITMAP
00003F80
00003F80
00003F80
00003F80
00003F80
00003F80
00003F80
00003F80
00003F80
00003F80
00003F80
01F83F80
07FE3F80
0FFF3F80
1FFFBF80
3FFFFF80
3FFFFF80
7FC3FF80
7F80FF80
7F007F80
FF007F80
FF007F80
FE003F80
FE003F80
FE003F80
FE003F80
FE003F80
FE003F80
FE003F80
FE003F80
FF007F80
FF007F80
7F007F80
7F80FF80
7FC1FF80
3FFFFF80
3FFFFF80
1FFFBF80
0FFF3F80
07FE3F80
01F80000
ENDCHAR
STARTCHAR e
ENCODING 101
SWIDTH 602 0
DWIDTH 31 0
BBX 27 30 2 -1
BITMAP
003FC000
01FFF800
07FFFC00
0FFFFE00
1FFFFF00
1FFFFF80
3FE07FC0
7F801FC0
7F001FC0
7E000FE0
FE000FE0
FFFFFFE0
FFFFFFE0
FFFFFFE0
FFFFFFE0
FFFFFFE0
FFFFFFE0
FE000000
FE000000
FE000000
7F000000
7F000040
7F8001C0
3FE00FC0
3FFFFFC0
1FFFFFC0
0FFFFFC0
07FFFFC0
01FFFF80
003FF800
ENDCHAR
STARTCHAR f
ENCODING 102
SWIDTH 602 0
DWIDTH 31 0
BBX 23 40 4 0
BITMAP
000FFE
003FFE
007FFE
00FFFE
00FFFE
01FFFE
01FE00
01FC00
01FC00
01FC00
01FC00
01FC00
FFFFFE
FFFFFE
FFFFFE
FFFFFE
FFFFFE
FFFFFE
01FC00
01FC00
01FC00
01FC00
01FC00
01FC00
01FC00
01FC00
01FC00
01FC00
01FC00
01FC00
01FC00
01FC00
01FC00
01FC00
01FC00
01FC00
01FC00
01FC00
01FC00
01FC00
ENDCHAR
STARTCHAR g
ENCODING 103
SWIDTH 602 0
DWIDTH 31 0
BBX 25 40 2 -11
BITMAP
01FC0000
07FF3F80
0FFFBF80
1FFFBF80
1FFFFF80
3FFFFF80
7FC3FF80
7F80FF80
7F007F80
FF007F80
FF007F80
FE003F80
FE003F80
FE003F80
FE003F80
FE003F80
FE003F80
FE003F80
FF007F80
FF007F80
7F007F80
7F80FF80
7FC3FF80
3FFFFF80
3FFFFF80
1FFFFF80
0FFFBF80
07FF3F80
01FC3F80
00003F80
00003F80
00007F80
10007F00
1E01FF00
1FFFFF00
1FFFFE00
1FFFFC00
1FFFF800
1FFFF000
03FF8000
ENDCHAR
STARTCHAR h
ENCODING 104
SWIDTH 602 0
DWIDTH 31 0
BBX 23 40 4 0
BITMAP
FE0000
FE0000
FE0000
FE0000
FE0000
FE0000
FE0000
FE0000
FE0000
FE0000
FE0000
FE1FC0
FE7FF0
FEFFF8
FEFFF8
FFFFFC
FFFFFC
FFC3FE
FF81FE
FF00FE
FE00FE
FE00FE
FE00FE
FE00FE
FE00FE
FE00FE
FE00FE
FE00FE
FE00FE
FE00FE
FE00FE
FE00FE
FE00FE
FE00FE
FE00FE
FE00FE
FE00FE
FE00FE
FE00FE
FE00FE
ENDCHAR
STARTCHAR i
ENCODING 105
SWIDTH 602 0
DWIDTH 31 0
BBX 25 42 4 0
BITMAP
007F0000
007F0000
007F0000
007F0000
007F0000
007F0000
007F0000
007F0000
007F0000
00000000
00000000
00000000
00000000
00000000
3FFF0000
3FFF0000
3FFF0000
3FFF0000
3FFF0000
3FFF0000
007F0000
007F0000
007F0000
007F0000
007F0000
007F0000
007F0000
007F0000
007F0000
007F0000
007F0000
007F0000
007F0000
007F0000
007F0000
007F0000
FFFFFF80
FFFFFF80
FFFFFF80
FFFFFF80
FFFFFF80
FFFFFF80
ENDCHAR
STARTCHAR j
ENCODING 106
SWIDTH 602 0
DWIDTH 31 0
BBX 18 53 3 -11
BITMAP
001FC0
001FC0
001FC0
001FC0
001FC0
001FC0
001FC0
001FC0
001FC0
000000
000000
000000
000000
000000
1FFFC0
1FFFC0
1FFFC0
1FFFC0
1FFFC0
1FFFC0
001FC0
001FC0
001FC0
001FC0
001FC0
001FC0
001FC0
001FC0
001FC0
001FC0
001FC0
001FC0
001FC0
001FC0
001FC0
001FC0
001FC0
001FC0
001FC0
001FC0
001FC0
001FC0
001FC0
001FC0
003FC0
003FC0
007F80
FFFF80
FFFF80
FFFF00
FFFF00
FFFC00
FFF000
ENDCHAR
STARTCHAR k
ENCODING 107
SWIDTH 602 0
DWIDTH 31 0
BBX 26 40 4 0
BITMAP
FE000000
FE000000
FE000000
FE000000
FE000000
FE000000
FE000000
FE000000
FE000000
FE000000
FE000000
FE000000
FE00FF80
FE01FF00
FE03FE00
FE07FC00
FE0FF800
FE1FF000
FE3FE000
FE7F8000
FEFF0000
FFFE0000
FFFC0000
FFFE0000
FFFF0000
FFFF0000
FFFF8000
FFBFC000
FF1FC000
FE1FE000
FE0FF000
FE0FF000
FE07F800
FE03FC00
FE03FC00
FE01FE00
FE01FF00
FE00FF00
FE007F80
FE007FC0
ENDCHAR
STARTCHAR l
ENCODING 108
SWIDTH 602 0
DWIDTH 31 0
BBX 26 40 2 0
BITMAP
FFFE0000
FFFE0000
FFFE0000
FFFE0000
FFFE0000
FFFE0000
00FE0000
00FE0000
00FE0000
00FE0000
00FE0000
00FE0000
00FE0000
00FE0000
00FE0000
00FE0000
00FE0000
00FE0000
00FE0000
00FE0000
00FE0000
00FE0000
00FE0000
00FE0000
00FE0000
00FE0000
00FE0000
00FE0000
00FE0000
00FE0000
00FE0000
00FE0000
00FF0000
007F8000
007FFFC0
007FFFC0
003FFFC0
003FFFC0
000FFFC0
0003FFC0
ENDCHAR
STARTCHAR m
ENCODING 109
SWIDTH 602 0
DWIDTH 31 0
BBX 28 29 2 0
BITMAP
00F81F00
F9FC7FC0
FBFE7FC0
FFFFFFE0
FFFFFFE0
FFFFFFE0
FE3FC7F0
FC1F83F0
FC1F83F0
FC1F83F0
FC1F83F0
FC1F83F0
FC1F83F0
FC1F83F0
FC1F83F0
FC1F83F0
FC1F83F0
FC1F83F0
FC1F83F0
FC1F83F0
FC1F83F0
FC1F83F0
FC1F83F0
FC1F83F0
FC1F83F0
FC1F83F0
FC1F83F0
FC1F83F0
FC1F83F0
ENDCHAR
STARTCHAR n
ENCODING 110
SWIDTH 602 0
DWIDTH 31 0
BBX 23 29 4 0
BITMAP
001FC0
FE3FF0
FEFFF8
FEFFF8
FFFFFC
FFFFFC
FFC3FE
FF81FE
FF00FE
FE00FE
FE00FE
FE00FE
FE00FE
FE00FE
FE00FE
FE00FE
FE00FE
FE00FE
FE00FE
FE00FE
FE00FE
FE00FE
FE00FE
FE00FE
FE00FE
FE00FE
FE00FE
FE00FE
FE00FE
ENDCHAR
STARTCHAR o
ENCODING 111
SWIDTH 602 0
DWIDTH 31 0
BBX 26 30 2 -1
BITMAP
007F8000
01FFE000
07FFF800
0FFFFC00
1FFFFE00
3FFFFF00
3FE1FF00
7F807F80
7F807F80
7F003F80
FF003FC0
FE001FC0
FE001FC0
FE001FC0
FE001FC0
FE001FC0
FE001FC0
FE001FC0
FE001FC0
FF003FC0
7F003F80
7F807F80
7F807F80
3FE1FF00
3FFFFF00
1FFFFE00
0FFFFC00
07FFF800
01FFE000
007F8000
ENDCHAR
STARTCHAR p
ENCODING 112
SWIDTH 602 0
DWIDTH 31 0
BBX 25 40 4 -11
BITMAP
000FC000
FE3FF000
FE7FF800
FEFFFC00
FFFFFE00
FFFFFE00
FFC1FF00
FF80FF00
FF007F00
FF007F00
FF007F80
FE003F80
FE003F80
FE003F80
FE003F80
FE003F80
FE003F80
FE003F80
FE003F80
FF007F80
FF007F00
FF007F00
FF80FF00
FFC1FF00
FFFFFE00
FFFFFE00
FEFFFC00
FE7FF800
FE3FF000
FE0FC000
FE000000
FE000000
FE000000
FE000000
FE000000
FE000000
FE000000
FE000000
FE000000
FE000000
ENDCHAR
STARTCHAR q
ENCODING 113
SWIDTH 602 0
DWIDTH 31 0
BBX 25 40 2 -11
BITMAP
01F80000
07FE3F80
0FFF3F80
1FFFBF80
3FFFFF80
3FFFFF80
7FC3FF80
7F80FF80
7F007F80
FF007F80
FF007F80
FE003F80
FE003F80
FE003F80
FE003F80
FE003F80
FE003F80
FE003F80
FE003F80
FF007F80
FF007F80
7F007F80
7F80FF80
7FC1FF80
3FFFFF80
3FFFFF80
1FFFBF80
0FFF3F80
07FE3F80
01FC3F80
00003F80
00003F80
00003F80
00003F80
00003F80
00003F80
00003F80
00003F80
00003F80
00003F80
ENDCHAR
STARTCHAR r
ENCODING 114
SWIDTH 602 0
DWIDTH 31 0
BBX 22 29 7 0
BITMAP
000FF0
FE3FFC
FE7FFC
FEFFFC
FFFFFC
FFFFFC
FFF01C
FFC004
FF8000
FF0000
FF0000
FE0000
FE0000
FE0000
FE0000
FE0000
FE0000
FE0000
FE0000
FE0000
FE0000
FE0000
FE0000
FE0000
FE0000
FE0000
FE0000
FE0000
FE0000
ENDCHAR
STARTCHAR s
ENCODING 115
SWIDTH 602 0
DWIDTH 31 0
BBX 23 30 4 -1
BITMAP
01FF00
0FFFF0
1FFFF8
3FFFF8
7FFFF8
7FFFF8
FF80F8
FE0038
FE0008
FE0000
FF0000
FFC000
7FFE00
7FFFC0
3FFFF0
0FFFF8
03FFFC
003FFC
0003FE
0001FE
0000FE
8000FE
E000FE
FC03FE
FFFFFE
FFFFFC
FFFFF8
FFFFF0
7FFFE0
03FF00
ENDCHAR
STARTCHAR t
ENCODING 116
SWIDTH 602 0
DWIDTH 31 0
BBX 24 36 3 0
BITMAP
01FC00
01FC00
01FC00
01FC00
01FC00
01FC00
01FC00
01FC00
FFFFFF
FFFFFF
FFFFFF
FFFFFF
FFFFFF
FFFFFF
01FC00
01FC00
01FC00
01FC00
01FC00
01FC00
01FC00
01FC00
01FC00
01FC00
01FC00
01FC00
01FC00
01FC00
01FC00
01FE00
01FFFF
00FFFF
00FFFF
007FFF
003FFF
000FFF
ENDCHAR
STARTCHAR u
ENCODING 117
SWIDTH 602 0
DWIDTH 31 0
BBX 23 29 4 -1
BITMAP
FE00FE
FE00FE
FE00FE
FE00FE
FE00FE
FE00FE
FE00FE
FE00FE
FE00FE
FE00FE
FE00FE
FE00FE
FE00FE
FE00FE
FE00FE
FE00FE
FE00FE
FE00FE
FE00FE
FE00FE
FE01FE
FF03FE
FF87FE
7FFFFE
7FFFFE
3FFEFE
3FFEFE
1FFCFE
07F000
ENDCHAR
STARTCHAR v
ENCODING 118
SWIDTH 602 0
DWIDTH 31 0
BBX 27 28 2 0
BITMAP
FF001FE0
FF001FE0
7F001FC0
7F001FC0
7F803FC0
3F803F80
3F803F80
3FC07F80
1FC07F00
1FC07F00
1FC07F00
0FE0FE00
0FE0FE00
0FE0FE00
07E0FC00
07F1FC00
07F1FC00
03F1F800
03FBF800
03FBF800
01FBF000
01FBF000
01FFF000
00FFF000
00FFE000
00FFE000
00FFE000
007FC000
ENDCHAR
STARTCHAR w
ENCODING 119
SWIDTH 602 0
DWIDTH 31 0
BBX 31 28 0 0
BITMAP
FC00007E
FC00007E
FE0000FE
7E0000FC
7E0000FC
7E0000FC
7E0000FC
7E0FE0FC
3E0FE0F8
3F0FE1F8
3F0FE1F8
3F0FE1F8
3F1FF1F8
3F1EF1F8
1F1EF1F0
1F9EF3F0
1FBEF3F0
1FBEFBF0
1FBC7BF0
0FBC7BE0
0FBC7BE0
0FFC7FE0
0FF83FE0
0FF83FE0
0FF83FE0
07F83FC0
07F01FC0
07F01FC0
ENDCHAR
STARTCHAR x
ENCODING 120
SWIDTH 602 0
DWIDTH 31 0
BBX 29 28 1 0
BITMAP
7FC01FF0
3FE03FE0
1FE03FC0
0FF07FC0
0FF07F80
07F8FF00
03F8FE00
03FDFE00
01FFFC00
00FFF800
007FF000
007FF000
003FE000
001FC000
003FE000
007FF000
00FFF800
00FFF800
01FFFC00
03FDFE00
03F8FF00
07F8FF00
0FF07F80
1FF07FC0
1FE03FC0
3FC01FE0
7FC01FF0
FF800FF8
ENDCHAR
STARTCHAR y
ENCODING 121
SWIDTH 602 0
DWIDTH 31 0
BBX 28 39 2 -11
BITMAP
FF000FF0
7F000FE0
7F800FE0
7F801FE0
3FC01FC0
3FC01FC0
1FC03FC0
1FE03F80
1FE03F80
0FE07F00
0FF07F00
07F07F00
07F0FE00
07F8FE00
03F8FE00
03F9FC00
01FDFC00
01FDFC00
01FFF800
00FFF800
00FFF000
007FF000
007FF000
007FE000
003FE000
003FE000
001FC000
001FC000
003F8000
003F8000
003F8000
007F0000
00FF0000
3FFE0000
3FFE0000
3FFC0000
3FFC0000
3FF00000
3FE00000
ENDCHAR
STARTCHAR z
ENCODING 122
SWIDTH 602 0
DWIDTH 31 0
BBX 23 28 4 0
BITMAP
7FFFFE
7FFFFE
7FFFFE
7FFFFE
7FFFFE
7FFFFE
0003FC
0003F8
0007F0
000FF0
001FE0
003FC0
007F80
00FF00
01FE00
03FC00
07F800
0FF800
0FF000
1FE000
3FC000
7F8000
FFFFFE
FFFFFE
FFFFFE
FFFFFE
FFFFFE
FFFFFE
ENDCHAR
STARTCHAR braceleft
ENCODING 123
SWIDTH 602 0
DWIDTH 31 0
BBX 23 48 4 -8
BITMAP
0007FE
001FFE
003FFE
007FFE
007FFE
00FF80
00FF00
00FE00
00FE00
00FE00
00FE00
00FE00
00FE00
00FE00
00FE00
00FE00
00FE00
00FE00
01FE00
01FE00
07FC00
FFFC00
FFF000
FF8000
FFF000
FFF800
07FC00
01FC00
01FE00
00FE00
00FE00
00FE00
00FE00
00FE00
00FE00
00FE00
00FE00
00FE00
00FE00
00FE00
00FE00
00FF00
00FF80
007FFE
007FFE
003FFE
001FFE
0007FE
ENDCHAR
STARTCHAR bar
ENCODING 124
SWIDTH 602 0
DWIDTH 31 0
BBX 6 52 13 -12
BITMAP
FC
FC
FC
FC
FC
FC
FC
FC
FC
FC
FC
FC
FC
FC
FC
FC
FC
FC
FC
FC
FC
FC
FC
FC
FC
FC
FC
FC
FC
FC
FC
FC
FC
FC
FC
FC
FC
FC
FC
FC
FC
FC
FC
FC
FC
FC
FC
FC
FC
FC
FC
FC
ENDCHAR
STARTCHAR braceright
ENCODING 125
SWIDTH 602 0
DWIDTH 31 0
BBX 23 48 4 -8
BITMAP
FFC000
FFF000
FFF800
FFFC00
FFFC00
03FE00
01FE00
00FE00
00FE00
00FE00
00FE00
00FE00
00FE00
00FE00
00FE00
00FE00
00FE00
00FE00
00FF00
00FF00
007FC0
007FFE
001FFE
0003FE
001FFE
003FFE
007FC0
00FF00
00FF00
00FE00
00FE00
00FE00
00FE00
00FE00
00FE00
00FE00
00FE00
00FE00
00FE00
00FE00
00FE00
01FE00
03FE00
FFFC00
FFFC00
FFF800
FFF000
FFC000
ENDCHAR
STARTCHAR asciitilde
ENCODING 126
SWIDTH 602 0
DWIDTH 31 0
BBX 26 9 2 12
BITMAP
0FE00040
3FFC00C0
FFFF03C0
FFFFFFC0
FFFFFFC0
FFFFFFC0
F03FFFC0
C007FF00
8000FC00
ENDCHAR
STARTCHAR degree
ENCODING 176
SWIDTH 602 0
DWIDTH 31 0
BBX 17 17 7 22
BITMAP
03E000
0FF800
3FFE00
3FFE00
7C1F00
F80F00
F00780
F00780
F00780
F00780
F00780
F80F00
7C1F00
7FFE00
3FFE00
1FF800
07E000
ENDCHAR
STARTCHAR plusminus
ENCODING 177
SWIDTH 602 0
DWIDTH 31 0
BBX 26 33 3 0
BITMAP
003F0000
003F0000
003F0000
003F0000
003F0000
003F0000
003F0000
003F0000
003F0000
FFFFFFC0
FFFFFFC0
FFFFFFC0
FFFFFFC0
FFFFFFC0
FFFFFFC0
003F0000
003F0000
003F0000
003F0000
003F0000
003F0000
003F0000
003F0000
003F0000
00000000
00000000
00000000
FFFFFFC0
FFFFFFC0
FFFFFFC0
FFFFFFC0
FFFFFFC0
FFFFFFC0
ENDCHAR
STARTCHAR mu
ENCODING 181
SWIDTH 602 0
DWIDTH 31 0
BBX 26 39 4 -11
BITMAP
FE00FE00
FE00FE00
FE00FE00
FE00FE00
FE00FE00
FE00FE00
FE00FE00
FE00FE00
FE00FE00
FE00FE00
FE00FE00
FE00FE00
FE00FE00
FE00FE00
FE00FE00
FE00FE00
FE00FE00
FE00FE00
FE00FE00
FE00FE00
FF01FE00
FF01FE00
FF83FF00
FFFFFFC0
FFFFFFC0
FFFFBFC0
FFFFBFC0
FEFF1FC0
FE7C0F80
FE000000
FE000000
FE000000
FE000000
FE000000
FE000000
FE000000
FE000000
FE000000
FE000000
ENDCHAR
STARTCHAR paragraph
ENCODING 182
SWIDTH 602 0
DWIDTH 31 0
BBX 25 43 2 -5
BITMAP
01FFFF80
07FFFF80
0FFFFF80
1FFFFF80
3FFE0F80
7FFE0F80
7FFE0F80
FFFE0F80
FFFE0F80
FFFE0F80
FFFE0F80
FFFE0F80
FFFE0F80
FFFE0F80
FFFE0F80
7FFE0F80
7FFE0F80
3FFE0F80
1FFE0F80
0FFE0F80
03FE0F80
007E0F80
003E0F80
003E0F80
003E0F80
003E0F80
003E0F80
003E0F80
003E0F80
003E0F80
003E0F80
003E0F80
003E0F80
003E0F80
003E0F80
003E0F80
003E0F80
003E0F80
003E0F80
003E0F80
003E0F80
003E0F80
003E0F80
ENDCHAR
STARTCHAR Adieresis
ENCODING 196
SWIDTH 602 0
DWIDTH 31 0
BBX 30 48 1 0
BITMAP
01F87E00
01F87E00
01F87E00
01F87E00
01F87E00
01F87E00
00000000
00000000
00000000
00000000
003FF000
003FF000
003FF000
007FF800
007FF800
007FF800
007FF800
00FFFC00
00FFFC00
00FCFC00
01FCFE00
01FCFE00
01FCFE00
01F87E00
03F87F00
03F87F00
03F87F00
03F03F00
07F03F80
07F03F80
07F03F80
0FF03FC0
0FFFFFC0
0FFFFFC0
0FFFFFC0
1FFFFFE0
1FFFFFE0
1FFFFFE0
1FC00FE0
3FC00FF0
3F8007F0
3F8007F0
7F8007F8
7F8007F8
7F0003F8
7F0003F8
FF0003FC
FF0003FC
ENDCHAR
STARTCHAR Odieresis
ENCODING 214
SWIDTH 602 0
DWIDTH 31 0
BBX 27 49 2 -1
BITMAP
07E0FC00
07E0FC00
07E0FC00
07E0FC00
07E0FC00
07E0FC00
00000000
00000000
00000000
003F8000
01FFF000
03FFF800
07FFFC00
0FFFFE00
1FFFFF00
1FFFFF00
3FE0FF80
3FC07F80
7F803FC0
7F001FC0
7F001FC0
7F001FC0
FE001FE0
FE000FE0
FE000FE0
FE000FE0
FE000FE0
FE000FE0
FE000FE0
FE000FE0
FE000FE0
FE000FE0
FE000FE0
FE000FE0
FE000FE0
FE001FE0
7F001FC0
7F001FC0
7F001FC0
7F803FC0
3FC07F80
3FE0FF80
1FFFFF00
1FFFFF00
0FFFFE00
07FFFC00
03FFF800
01FFF000
003F8000
ENDCHAR
STARTCHAR Udieresis
ENCODING 220
SWIDTH 602 0
DWIDTH 31 0
BBX 26 49 3 -1
BITMAP
07E1F800
07E1F800
07E1F800
07E1F800
07E1F800
07E1F800
00000000
00000000
00000000
00000000
FE001FC0
FE001FC0
FE001FC0
FE001FC0
FE001FC0
FE001FC0
FE001FC0
FE001FC0
FE001FC0
FE001FC0
FE001FC0
FE001FC0
FE001FC0
FE001FC0
FE001FC0
FE001FC0
FE001FC0
FE001FC0
FE001FC0
FE001FC0
FE001FC0
FE001FC0
FE001FC0
FE001FC0
FE001FC0
FE001FC0
FE001FC0
FE001FC0
FE001FC0
FF003FC0
7F807F80
7FC0FF80
7FFFFF80
3FFFFF00
3FFFFF00
1FFFFE00
0FFFFC00
03FFF000
00FFC000
ENDCHAR
STARTCHAR germandbls
ENCODING 223
SWIDTH 602 0
DWIDTH 31 0
BBX 27 41 3 -1
BITMAP
00FF0000
07FFC000
1FFFF000
3FFFF800
3FFFF800
7FFFFC00
7F81FC00
FF00FC00
FE007E00
FE007E00
FE01FE00
FE07FE00
FE0FFE00
FE1FF000
FE1FC000
FE3FC000
FE3F8000
FE3F8000
FE3F8000
FE3FC000
FE3FE000
FE3FF000
FE1FF800
FE1FFC00
FE0FFE00
FE07FF00
FE01FF80
FE00FFC0
FE007FC0
FE001FE0
FE001FE0
FE000FE0
FE000FE0
FE000FE0
FE603FE0
FE7FFFC0
FE7FFFC0
FE7FFF80
FE7FFF00
FE7FFE00
001FF000
ENDCHAR
STARTCHAR adieresis
ENCODING 228
SWIDTH 602 0
DWIDTH 31 0
BBX 26 41 2 -1
BITMAP
03F0FC00
03F0FC00
03F0FC00
03F0FC00
03F0FC00
03F0FC00
00000000
00000000
00000000
00000000
00000000
00FFC000
0FFFF800
1FFFFE00
1FFFFF00
1FFFFF00
1F80FF80
1C003F80
10001FC0
00001FC0
00001FC0
00FFFFC0
07FFFFC0
1FFFFFC0
3FFFFFC0
7FFFFFC0
7FE01FC0
FF001FC0
FF001FC0
FE001FC0
FE001FC0
FE003FC0
FE003FC0
FE007FC0
FF00FFC0
7FC1FFC0
7FFFFFC0
3FFFFFC0
1FFFDFC0
0FFF1FC0
01FC0000
ENDCHAR
STARTCHAR odieresis
ENCODING 246
SWIDTH 602 0
DWIDTH 31 0
BBX 26 40 2 -1
BITMAP
07E1F800
07E1F800
07E1F800
07E1F800
07E1F800
07E1F800
00000000
00000000
00000000
00000000
007F8000
01FFE000
07FFF800
0FFFFC00
1FFFFE00
3FFFFF00
3FE1FF00
7F807F80
7F807F80
7F003F80
FF003FC0
FE001FC0
FE001FC0
FE001FC0
FE001FC0
FE001FC0
FE001FC0
FE001FC0
FE001FC0
FF003FC0
7F003F80
7F807F80
7F807F80
3FE1FF00
3FFFFF00
1FFFFE00
0FFFFC00
07FFF800
01FFE000
007F8000
ENDCHAR
STARTCHAR udieresis
ENCODING 252
SWIDTH 602 0
DWIDTH 31 0
BBX 23 41 4 -1
BITMAP
1F83F0
1F83F0
1F83F0
1F83F0
1F83F0
1F83F0
000000
000000
000000
000000
000000
000000
FE00FE
FE00FE
FE00FE
FE00FE
FE00FE
FE00FE
FE00FE
FE00FE
FE00FE
FE00FE
FE00FE
FE00FE
FE00FE
FE00FE
FE00FE
FE00FE
FE00FE
FE00FE
FE00FE
FE00FE
FE01FE
FF03FE
FF87FE
7FFFFE
7FFFFE
3FFEFE
3FFEFE
1FFCFE
07F000
ENDCHAR
STARTCHAR Euro
ENCODING 8364
SWIDTH 602 0
DWIDTH 31 0
BBX 28 40 0 -1
BITMAP
0000FF00
0007FFE0
000FFFF0
003FFFF0
007FFFF0
007FFFF0
00FF81F0
01FF0070
01FE0030
03FC0010
03FC0000
03F80000
03F80000
3FFFFF00
3FFFFE00
7FFFFE00
7FFFFC00
FFFFFC00
07F00000
07F00000
07F00000
07F00000
3FFFF000
3FFFE000
7FFFE000
7FFFE000
FFFFC000
03F80000
03F80000
03F80000
03FC0000
01FE0030
01FF0070
00FF81F0
007FFFF0
007FFFF0
003FFFF0
000FFFF0
0007FFE0
0000FF00
ENDCHAR
ENDFONT
